<svg width="60" height="60" viewBox="0 0 60 60" fill="none" xmlns="http://www.w3.org/2000/svg">
<path d="M25.0506 35.4588V39.1302L12 33.4734V30.3342L25.0506 24.678V28.3752L15.957 31.8786L25.0506 35.4588Z" fill="white"/>
<path d="M33.12 24.6L29.487 39.558C29.3664 40.0506 29.2608 40.4406 29.1696 40.7256C29.079 41.0112 28.9404 41.235 28.755 41.3928C28.569 41.5536 28.2984 41.6328 27.9438 41.6328C27.0618 41.6328 26.6202 41.2506 26.6202 40.4916C26.6202 40.2924 26.7072 39.7956 26.88 39L30.4998 24.042C30.69 23.2464 30.8712 22.7016 31.044 22.4076C31.2174 22.1136 31.5546 21.9666 32.0568 21.9666C32.4894 21.9666 32.8194 22.0704 33.0486 22.278C33.2778 22.4856 33.3924 22.7712 33.3924 23.1342C33.3924 23.4024 33.3012 23.8908 33.12 24.6Z" fill="white"/>
<path d="M47.9999 33.4734L34.9493 39.156V35.4846L44.0693 31.9044L34.9493 28.3752V24.7296L47.9999 30.36V33.4734Z" fill="white"/>
<path d="M56.4 3.60001H3.6C1.6122 3.60001 0 5.21221 0 7.20001V52.8C0 54.7872 1.6122 56.4 3.6 56.4H56.4C58.3884 56.4 60 54.7872 60 52.8V7.20001C60 5.21161 58.3884 3.60001 56.4 3.60001ZM47.4 6.00001C48.723 6.00001 49.8 7.07641 49.8 8.40001C49.8 9.72361 48.723 10.8 47.4 10.8C46.077 10.8 45 9.72361 45 8.40001C45 7.07641 46.077 6.00001 47.4 6.00001ZM40.8 6.00001C42.123 6.00001 43.2 7.07641 43.2 8.40001C43.2 9.72361 42.123 10.8 40.8 10.8C39.477 10.8 38.4 9.72361 38.4 8.40001C38.4 7.07641 39.477 6.00001 40.8 6.00001ZM56.4 52.8H3.6V13.2H56.4V52.8ZM54 10.8C52.677 10.8 51.6 9.72361 51.6 8.40001C51.6 7.07641 52.677 6.00001 54 6.00001C55.323 6.00001 56.4 7.07641 56.4 8.40001C56.4 9.72361 55.323 10.8 54 10.8Z" fill="white"/>
</svg>
