<svg width="39" height="39" viewBox="0 0 39 39" fill="none" xmlns="http://www.w3.org/2000/svg">
<path d="M19.6167 37.4307L19.6072 37.4308C9.50312 37.4746 1.18222 29.0587 1.42346 18.773L1.42346 18.7727C1.64996 8.98209 9.76415 0.891502 19.8474 1.0011C29.8345 1.11069 38.1009 9.42872 37.8305 19.7255C37.5747 29.4751 29.5242 37.4819 19.6167 37.4307ZM1.75959 19.2364L1.75954 19.2441L1.75961 19.2517C1.84928 29.4659 10.1377 37.3512 19.9451 37.1796L19.9457 37.1795C29.4363 37.008 37.4789 29.275 37.4789 19.2198C37.4789 8.99408 29.119 1.08021 19.2846 1.26779C9.78616 1.43973 1.8248 9.20221 1.75959 19.2364Z" fill="white" stroke="white" stroke-width="2"/>
<path d="M15.6029 32.7413C15.6029 28.2007 15.6029 23.6986 15.6029 19.1503C14.6007 19.1503 13.6294 19.1503 12.6349 19.1503C12.6349 17.6085 12.6349 16.1129 12.6349 14.5711C12.7659 14.5634 12.897 14.548 13.0358 14.548C13.7527 14.548 14.4773 14.5326 15.1943 14.5557C15.5104 14.5634 15.6183 14.4786 15.6106 14.1548C15.5952 12.9831 15.5952 11.819 15.6029 10.6472C15.6106 9.32898 15.9806 8.13408 16.9211 7.17816C17.8308 6.25307 18.9948 5.75199 20.2591 5.6749C22.2943 5.55926 24.3372 5.57468 26.3801 5.53613C26.4032 5.53613 26.4264 5.55926 26.4726 5.58239C26.4726 7.1319 26.4726 8.68913 26.4726 10.2849C26.3261 10.2926 26.1874 10.3003 26.0563 10.3003C25.1312 10.3003 24.2062 10.3003 23.2811 10.3003C22.3483 10.308 21.8009 10.8631 21.8009 11.7805C21.8009 12.6516 21.8009 13.5304 21.8086 14.4015C21.8086 14.4247 21.8241 14.4478 21.8472 14.5326C23.3736 14.5326 24.9154 14.5326 26.5343 14.5326C26.3339 16.0975 26.1488 17.5931 25.9484 19.1426C24.5531 19.1426 23.1886 19.1426 21.7855 19.1426C21.7855 23.7063 21.7855 28.2238 21.7855 32.7568C19.7118 32.7413 17.692 32.7413 15.6029 32.7413Z" fill="white"/>
</svg>
