<svg width="66" height="66" viewBox="0 0 66 66" fill="none" xmlns="http://www.w3.org/2000/svg">
<path d="M3.55577 31.0557L14.5558 20.0557C14.8095 19.7931 15.1129 19.5836 15.4484 19.4395C15.7839 19.2953 16.1448 19.2195 16.5099 19.2163C16.8751 19.2131 17.2372 19.2827 17.5751 19.421C17.9131 19.5593 18.2202 19.7635 18.4784 20.0217C18.7366 20.2799 18.9408 20.5869 19.079 20.9249C19.2173 21.2628 19.2869 21.625 19.2837 21.9901C19.2805 22.3552 19.2047 22.7161 19.0606 23.0516C18.9164 23.3871 18.7069 23.6906 18.4443 23.9442L9.38852 33L18.4443 42.0557C18.7069 42.3094 18.9164 42.6129 19.0606 42.9484C19.2047 43.2839 19.2805 43.6448 19.2837 44.0099C19.2869 44.375 19.2173 44.7372 19.079 45.0751C18.9408 45.4131 18.7366 45.7201 18.4784 45.9783C18.2202 46.2365 17.9131 46.4407 17.5751 46.579C17.2372 46.7173 16.8751 46.7869 16.5099 46.7837C16.1448 46.7805 15.7839 46.7047 15.4484 46.5605C15.1129 46.4164 14.8095 46.2069 14.5558 45.9443L3.55577 34.9442C3.04023 34.4285 2.75061 33.7292 2.75061 33C2.75061 32.2708 3.04023 31.5714 3.55577 31.0557ZM51.4443 20.0557C51.1906 19.7931 50.8871 19.5836 50.5516 19.4395C50.2161 19.2953 49.8553 19.2195 49.4901 19.2163C49.125 19.2131 48.7629 19.2827 48.4249 19.421C48.0869 19.5593 47.7799 19.7635 47.5217 20.0217C47.2635 20.2799 47.0593 20.5869 46.921 20.9249C46.7827 21.2628 46.7132 21.625 46.7163 21.9901C46.7195 22.3552 46.7954 22.7161 46.9395 23.0516C47.0836 23.3871 47.2931 23.6906 47.5558 23.9442L56.6115 33L47.5558 42.0557C47.2931 42.3094 47.0836 42.6129 46.9395 42.9484C46.7954 43.2839 46.7195 43.6448 46.7163 44.0099C46.7132 44.375 46.7827 44.7372 46.921 45.0751C47.0593 45.4131 47.2635 45.7201 47.5217 45.9783C47.7799 46.2365 48.0869 46.4407 48.4249 46.579C48.7629 46.7173 49.125 46.7869 49.4901 46.7837C49.8553 46.7805 50.2161 46.7047 50.5516 46.5605C50.8871 46.4164 51.1906 46.2069 51.4443 45.9443L62.4443 34.9442C62.9598 34.4285 63.2494 33.7292 63.2494 33C63.2494 32.2708 62.9598 31.5714 62.4443 31.0557L51.4443 20.0557ZM35.8573 12.9965L24.8573 51.4965C24.657 52.1974 24.7432 52.9491 25.097 53.5865C25.4507 54.2238 26.0431 54.6947 26.7438 54.8955C26.9901 54.9636 27.2444 54.9987 27.5 55C28.0976 54.9996 28.6788 54.8045 29.1557 54.4442C29.6325 54.084 29.979 53.5782 30.1428 53.0035L41.1428 14.5035C41.2574 14.1519 41.3 13.7808 41.2679 13.4124C41.2358 13.044 41.1298 12.6858 40.9561 12.3594C40.7824 12.0329 40.5446 11.7448 40.2571 11.5123C39.9695 11.2798 39.6379 11.1077 39.2823 11.0063C38.9267 10.9049 38.5542 10.8763 38.1873 10.9222C37.8203 10.968 37.4664 11.0874 37.1466 11.2732C36.8269 11.459 36.5479 11.7074 36.3264 12.0035C36.1048 12.2996 35.9453 12.6373 35.8573 12.9965Z" fill="white"/>
</svg>
