<svg width="39" height="39" viewBox="0 0 39 39" fill="none" xmlns="http://www.w3.org/2000/svg">
<path d="M19.2009 38.4311C8.52389 38.485 -0.249001 29.5965 0.00539701 18.7576C0.236668 8.42747 8.80141 -0.129568 19.463 0.00148562C29.9936 0.132539 38.6894 8.89772 38.4118 19.7366C38.1497 30.0282 29.6698 38.4773 19.2009 38.4311ZM2.34124 19.2124C2.41062 28.6637 9.88839 36.0336 18.8694 36.1646C28.3978 36.3034 36.0452 28.7871 36.0683 19.2433C36.076 9.78426 28.5289 2.43754 19.5324 2.26024C10.2738 2.08293 2.41833 9.52986 2.34124 19.2124Z" fill="white"/>
<path d="M31.096 19.4745C31.096 21.1551 31.0497 22.8434 31.1037 24.524C31.2193 27.7541 28.8912 30.4522 25.8153 31.2231C25.214 31.3773 24.5741 31.4698 23.9574 31.4775C20.6965 31.5007 17.4355 31.5315 14.1746 31.4775C11.4533 31.4313 9.3102 30.2749 7.8609 27.9237C7.30585 27.0217 7.02832 26.0195 7.02832 24.9557C7.02061 21.2939 6.98978 17.6321 7.03603 13.978C7.06687 11.5882 8.26177 9.82283 10.243 8.55854C11.4764 7.77222 12.8409 7.41761 14.298 7.41761C17.4818 7.4099 20.6656 7.37906 23.8495 7.42531C26.6555 7.46386 28.8758 8.63563 30.3173 11.1025C30.8338 11.9891 31.096 12.9681 31.096 14.0088C31.0882 15.8282 31.096 17.6552 31.096 19.4745ZM8.8014 19.4591C8.8014 21.2168 8.8014 22.9822 8.8014 24.7398C8.8014 25.4413 8.93246 26.1197 9.26395 26.7442C10.3278 28.7485 12.07 29.6582 14.2671 29.689C17.4509 29.7353 20.6425 29.7122 23.8263 29.689C24.3737 29.689 24.9287 29.5965 25.4606 29.4578C27.5806 28.8873 29.3846 27.0525 29.3229 24.3621C29.2458 20.9701 29.3075 17.5781 29.3075 14.1861C29.3075 13.4384 29.1687 12.7291 28.8064 12.0739C27.7194 10.1235 25.9849 9.23694 23.8263 9.2061C20.6502 9.15985 17.4818 9.17527 14.3057 9.2061C13.6735 9.21381 13.026 9.32945 12.4169 9.51447C10.3432 10.1543 8.70889 11.9968 8.79369 14.4791C8.84766 16.1442 8.8014 17.8017 8.8014 19.4591Z" fill="white"/>
<path d="M19.0622 13.4383C22.1998 13.4305 24.7438 15.936 24.7438 19.0196C24.736 22.0878 22.1998 24.5932 19.093 24.6009C15.9632 24.6087 13.4269 22.1109 13.4269 19.0119C13.4269 15.936 15.94 13.446 19.0622 13.4383ZM19.0622 15.2267C16.9499 15.2345 15.2077 16.9536 15.2154 19.0273C15.2231 21.101 16.9576 22.8047 19.0853 22.8124C21.2053 22.8124 22.9475 21.1087 22.9553 19.035C22.9475 16.9304 21.1976 15.219 19.0622 15.2267Z" fill="white"/>
<path d="M26.5939 12.9526C26.6093 13.6079 26.0697 14.1861 25.4298 14.2092C24.7745 14.2323 24.2118 13.6773 24.2041 12.9911C24.1964 12.3205 24.7129 11.7577 25.3527 11.7346C26.008 11.7114 26.5784 12.2742 26.5939 12.9526Z" fill="white"/>
</svg>
