<svg width="142" height="40" viewBox="0 0 142 40" fill="none" xmlns="http://www.w3.org/2000/svg">
<path d="M4.596 33.352L5.96 23.54C6.356 20.856 7.28 15.62 7.852 12.144C8.072 10.78 9.128 6.864 9.788 4.312L10.228 2.86C10.36 2.42 10.096 1.848 9.568 1.76L8.072 1.496C7.544 1.408 6.972 1.804 6.84 2.332L6.444 3.784C5.52 6.6 4.772 9.592 4.244 12.716C3.804 15.18 2.836 20.68 2.44 23.54L1.032 33.748C0.856 35.024 1.34 36.476 2.748 36.696C4.596 36.96 6.048 36.916 8.556 36.432C11.196 35.904 14.54 35.156 17.356 34.936L19.688 34.892H21.096C21.536 34.892 22.108 34.54 22.196 33.924L22.416 32.34C22.46 31.9 22.196 31.372 21.58 31.372H20.172C16.828 31.372 16.828 31.592 14.54 31.812C13.572 31.9 12.252 32.164 10.58 32.56C7.896 33.176 5.96 33.44 4.596 33.352ZM32.6859 15.488H32.9939C33.3459 16.192 33.5659 17.072 33.5219 18.788C33.5219 19.404 33.3019 20.372 32.9059 21.604C32.6859 22.264 32.3779 23.408 31.9819 24.948C31.4539 26.884 30.6179 28.248 29.6059 29.084C28.8579 29.7 28.1539 30.096 26.5259 29.744C25.1179 29.436 24.8539 27.28 25.0739 25.74C25.3379 23.892 25.8219 21.868 26.5259 19.624C27.0099 18.04 27.5819 16.852 28.6379 15.84C28.7259 15.752 29.3859 15.444 29.6059 15.4H30.4419L32.6859 15.488ZM30.9699 11.88H30.0459C29.4739 11.88 28.8579 12.056 28.2419 12.32C26.7899 12.936 26.0419 13.728 25.1179 15.048C24.2819 16.236 23.5779 17.6 23.1819 19.008C22.5659 21.164 21.9499 23.056 21.5539 25.784C21.3779 26.884 21.4659 28.028 21.7299 29.216C22.2139 31.416 23.4459 32.824 25.3819 33.176L26.5259 33.352C27.1859 33.44 27.9339 33.396 28.8139 33.176C32.3779 32.34 34.6219 28.468 35.4139 25.432C35.6779 24.464 35.8539 23.716 35.9859 23.276C36.5579 21.472 36.9539 20.02 37.0419 19.008C37.2179 16.632 36.9979 14.828 36.2499 13.596L36.0299 13.244C36.1179 12.672 36.0299 11.968 35.2379 11.968H33.2139L30.9699 11.88ZM51.8276 13.904C51.8716 13.64 51.4756 13.024 51.2996 12.848C51.2996 12.804 50.2876 11.836 50.2436 11.836C50.1116 11.704 49.4956 11.616 49.2756 11.616C48.6156 11.616 46.5916 11.792 46.1956 12.144C43.8196 12.452 41.6636 13.244 40.1236 14.696C38.9356 15.84 37.7476 17.468 37.0436 19.008C36.4276 20.372 35.5036 22.836 35.6356 24.948C35.8116 26.84 36.8236 28.248 38.8916 28.644C40.6516 29.084 42.4556 28.864 44.7876 27.5C45.8436 27.236 46.7676 26.532 47.6036 25.564L47.1636 28.688C46.9876 30.052 46.1956 31.152 45.0076 32.164C44.6556 32.472 41.6636 34.276 40.5196 34.848C38.9356 35.64 37.3076 36.036 35.6356 36.036H33.8316C33.3916 36.036 32.8196 36.388 32.7316 37.004L32.5116 38.588C32.4676 39.028 32.7316 39.556 33.3476 39.556H35.1516C36.8236 39.556 37.8796 39.38 39.1996 38.94C40.9596 38.368 41.9276 37.972 44.0396 36.696C45.4916 35.816 46.8116 35.024 48.2196 33.616C48.7916 33.044 49.3636 32.164 50.0676 30.888C50.3756 30.316 50.5516 29.612 50.6836 28.688L51.1236 25.3C51.5196 22.308 51.4316 19.756 51.6956 16.808C51.7836 15.796 51.7396 14.476 51.8276 13.904ZM48.1316 15.136C47.7796 17.6 46.2836 21.428 44.7436 23.54C43.2916 25.476 41.7956 26.532 39.0676 25.344C38.6276 25.168 38.4956 24.904 38.7156 23.408C38.7596 23.012 39.1996 21.736 40.0796 19.888C40.6956 18.656 42.7196 16.236 43.8636 15.796C45.1396 15.312 46.3276 15.136 47.3836 15.136H48.1316ZM60.4007 15.488H60.7087C61.0607 16.192 61.2807 17.072 61.2367 18.788C61.2367 19.404 61.0167 20.372 60.6207 21.604C60.4007 22.264 60.0927 23.408 59.6967 24.948C59.1687 26.884 58.3327 28.248 57.3207 29.084C56.5727 29.7 55.8687 30.096 54.2407 29.744C52.8327 29.436 52.5687 27.28 52.7887 25.74C53.0527 23.892 53.5367 21.868 54.2407 19.624C54.7247 18.04 55.2967 16.852 56.3527 15.84C56.4407 15.752 57.1007 15.444 57.3207 15.4H58.1567L60.4007 15.488ZM58.6847 11.88H57.7607C57.1887 11.88 56.5727 12.056 55.9567 12.32C54.5047 12.936 53.7567 13.728 52.8327 15.048C51.9967 16.236 51.2927 17.6 50.8967 19.008C50.2807 21.164 49.6647 23.056 49.2687 25.784C49.0927 26.884 49.1807 28.028 49.4447 29.216C49.9287 31.416 51.1607 32.824 53.0967 33.176L54.2407 33.352C54.9007 33.44 55.6487 33.396 56.5287 33.176C60.0927 32.34 62.3367 28.468 63.1287 25.432C63.3927 24.464 63.5687 23.716 63.7007 23.276C64.2727 21.472 64.6687 20.02 64.7567 19.008C64.9327 16.632 64.7127 14.828 63.9647 13.596L63.7447 13.244C63.8327 12.672 63.7447 11.968 62.9527 11.968H60.9287L58.6847 11.88ZM85.2336 11.748L86.5976 1.936C86.6416 1.496 86.3776 0.967998 85.7616 0.967998H84.1776C83.7376 0.967998 83.1656 1.32 83.0776 1.936L78.9856 31.108C78.8096 32.296 79.9536 32.252 80.5696 32.164C80.6576 32.164 82.2856 32.516 82.5056 31.108L83.6056 23.408C84.0016 20.724 84.4416 19.272 85.4536 16.72C85.6296 16.28 85.8496 15.972 86.1576 15.312C86.4656 14.652 87.1696 14.168 88.4456 14.168C89.1056 14.168 90.0736 14.564 90.4696 14.828C92.8456 16.412 93.6376 18.788 93.5496 22.308L93.5056 23.452C93.5056 23.804 93.5056 24.068 93.4616 24.332L92.4056 31.9C92.3616 32.34 92.5816 32.868 93.1976 32.868H94.7816C95.2216 32.868 95.7936 32.516 95.8816 31.9L96.9816 24.112C97.0696 23.496 97.0696 22.264 97.0696 20.108C97.0696 19.272 96.8936 18.48 96.6736 17.644C96.2776 16.016 95.5296 14.432 94.2096 13.024C93.4616 12.232 92.7576 11.836 92.0096 11.396C91.9656 11.396 91.9216 11.352 91.8776 11.352C90.8216 10.912 89.8976 10.648 88.9736 10.648C87.6096 10.648 86.3776 10.956 85.2336 11.748ZM100.533 19.184C100.973 18.084 102.205 16.368 103.217 15.444C104.449 14.608 105.461 14.476 106.693 14.916C108.365 15.092 109.553 15.752 110.301 16.852C110.301 17.38 110.169 17.512 109.817 17.776C109.597 18.92 109.333 18.964 108.101 19.536C107.969 19.58 106.913 19.668 106.341 19.668C105.945 19.668 103.481 19.668 103.261 19.58C102.117 19.58 101.149 19.404 100.533 19.184ZM96.2645 21.648C96.0005 22.748 95.9565 25.74 96.0445 27.412C96.2205 30.492 97.1885 32.648 99.0365 33.88C100.577 34.936 102.249 35.596 104.141 35.464C105.505 35.42 107.177 35.156 108.101 34.892C109.597 34.496 111.049 34.1 111.797 33.704C111.885 33.66 112.809 33.088 112.765 33.044C113.689 32.208 112.809 30.976 112.457 30.492C112.281 30.096 111.489 30.14 111.049 30.36C110.213 30.8 109.113 31.284 108.277 31.416C107.485 31.548 106.605 31.9 105.945 31.9C105.549 31.9 104.933 31.988 104.493 31.856C102.777 31.812 101.413 31.724 100.093 30.58C99.6525 30.184 99.2565 29.392 98.9925 28.16C98.7285 26.884 99.1685 24.64 99.5645 22.66C101.237 23.1 102.777 23.188 106.561 23.188C109.817 23.188 112.853 21.296 113.733 17.82C113.733 17.776 113.777 17.776 113.777 17.732L113.865 17.072C114.217 14.652 112.061 12.936 111.093 12.32C109.553 11.352 107.705 10.912 106.12 10.78C103.525 10.604 101.237 11.792 99.5205 14.124C98.4645 15.576 97.7605 16.896 97.2325 18.26C96.8805 18.26 96.3965 18.48 96.2205 19.008L95.6925 20.548C95.4725 21.12 95.8245 21.472 96.2645 21.648ZM115.557 10.472C115.117 10.472 114.545 10.824 114.457 11.44L111.729 30.888C111.641 31.46 111.245 32.428 111.861 33.176C112.389 33.836 113.797 33.968 114.633 33.264C115.425 32.56 115.337 31.592 115.425 31.328C115.777 30.14 116.877 24.112 117.273 21.912C117.801 19.14 118.549 16.852 119.693 15.004C120.265 14.08 120.925 13.728 122.069 13.772C122.333 13.772 122.597 13.816 122.817 13.816H124.577C125.017 13.816 125.589 13.464 125.677 12.848L125.897 11.264C125.941 10.824 125.677 10.296 125.061 10.296H123.301C122.421 10.296 121.321 10.252 120.177 10.604C119.429 10.824 118.549 11.44 117.845 12.188L117.977 11.44C118.021 11 117.757 10.472 117.141 10.472H115.557ZM127.689 19.184C128.129 18.084 129.361 16.368 130.373 15.444C131.605 14.608 132.617 14.476 133.849 14.916C135.521 15.092 136.709 15.752 137.457 16.852C137.457 17.38 137.325 17.512 136.973 17.776C136.753 18.92 136.489 18.964 135.257 19.536C135.125 19.58 134.069 19.668 133.497 19.668C133.101 19.668 130.637 19.668 130.417 19.58C129.273 19.58 128.305 19.404 127.689 19.184ZM123.421 21.648C123.157 22.748 123.113 25.74 123.201 27.412C123.377 30.492 124.345 32.648 126.193 33.88C127.733 34.936 129.405 35.596 131.297 35.464C132.661 35.42 134.333 35.156 135.257 34.892C136.753 34.496 138.205 34.1 138.953 33.704C139.041 33.66 139.965 33.088 139.921 33.044C140.845 32.208 139.965 30.976 139.613 30.492C139.437 30.096 138.645 30.14 138.205 30.36C137.369 30.8 136.269 31.284 135.433 31.416C134.641 31.548 133.761 31.9 133.101 31.9C132.705 31.9 132.089 31.988 131.649 31.856C129.933 31.812 128.569 31.724 127.249 30.58C126.809 30.184 126.413 29.392 126.149 28.16C125.885 26.884 126.325 24.64 126.721 22.66C128.393 23.1 129.933 23.188 133.717 23.188C136.973 23.188 140.009 21.296 140.889 17.82C140.889 17.776 140.933 17.776 140.933 17.732L141.021 17.072C141.373 14.652 139.217 12.936 138.249 12.32C136.709 11.352 134.861 10.912 133.277 10.78C130.681 10.604 128.393 11.792 126.677 14.124C125.621 15.576 124.917 16.896 124.389 18.26C124.037 18.26 123.553 18.48 123.377 19.008L122.849 20.548C122.629 21.12 122.981 21.472 123.421 21.648Z" fill="white"/>
</svg>
