<svg width="43" height="42" viewBox="0 0 43 42" fill="none" xmlns="http://www.w3.org/2000/svg">
<path fill-rule="evenodd" clip-rule="evenodd" d="M22.3144 18.5992C19.837 20.8791 17.4188 23.037 17.4188 23.037C17.0844 23.3351 17.0558 23.8478 17.3539 24.1823C17.652 24.516 18.1648 24.5453 18.4992 24.2472C18.4992 24.2472 24.8339 18.5928 27.5388 15.8879C27.9517 15.4757 28.0758 15.1598 28.0979 15.0286C28.1543 14.6948 28.0373 14.4595 27.869 14.2883C27.7456 14.1621 27.5624 14.0423 27.2814 14.0302C27.1438 14.0245 26.8378 14.078 26.4256 14.2719C24.068 15.3809 14.6932 21.6264 14.6932 21.6264C14.3203 21.8746 14.2197 22.3788 14.4679 22.751C14.7168 23.124 15.221 23.2246 15.5932 22.9764C15.5932 22.9764 19.0826 20.6487 22.3144 18.5992Z" fill="white"/>
<path d="M21.6054 1.53467C10.9897 1.53467 2.37183 10.1526 2.37183 20.7683C2.37183 31.384 10.9897 40.0019 21.6054 40.0019C32.2212 40.0019 40.8391 31.384 40.8391 20.7683C40.8391 10.1526 32.2212 1.53467 21.6054 1.53467ZM21.6054 3.6572C31.0494 3.6572 38.7165 11.3243 38.7165 20.7683C38.7165 30.2122 31.0494 37.8794 21.6054 37.8794C12.1615 37.8794 4.49436 30.2122 4.49436 20.7683C4.49436 11.3243 12.1615 3.6572 21.6054 3.6572Z" fill="white" stroke="white" stroke-width="0.5"/>
<path fill-rule="evenodd" clip-rule="evenodd" d="M14.4922 22.9435L16.228 28.59C16.2344 28.6107 16.2415 28.6314 16.2494 28.6514C16.4341 29.1149 16.6195 29.3845 16.7521 29.5121C16.9917 29.7432 17.2378 29.7967 17.4417 29.7909C17.7284 29.7824 18.1905 29.6112 18.3738 28.9316C18.3866 28.8817 18.3959 28.8311 18.3994 28.7797L18.6619 25.1656L25.5186 30.2088C26.2232 30.7437 26.8564 30.8571 27.3364 30.7109C27.8313 30.5597 28.3105 30.1061 28.5373 29.1406C28.5387 29.1349 28.5401 29.1292 28.5408 29.1235L31.9254 13.1758C32.1272 12.3264 32.0138 11.6917 31.7378 11.3209C31.4176 10.8895 30.8122 10.5964 29.7824 10.8745C29.7546 10.8816 29.7268 10.8909 29.7004 10.9016L9.82122 18.6112C9.79055 18.6234 9.76059 18.6376 9.73136 18.6526C8.78931 19.1582 8.57966 19.7365 8.57681 20.1109C8.57324 20.6151 8.92695 21.1029 9.5274 21.3439C9.54523 21.3511 9.56306 21.3582 9.5816 21.3639L14.4922 22.9435ZM30.4 12.4042C30.3921 12.5197 30.3764 12.6766 30.3451 12.8085C30.3429 12.8156 30.3415 12.8228 30.3401 12.8299L26.9563 28.7755C26.9277 28.8931 26.8714 29.0279 26.8336 29.112C26.7438 29.0678 26.6004 28.993 26.497 28.9138C26.4927 28.9109 26.4892 28.9081 26.4849 28.9052L18.4394 22.9884C18.2019 22.8137 17.8874 22.7816 17.6193 22.905C17.3511 23.0291 17.1714 23.2886 17.15 23.5832L17.0039 25.592L15.9185 22.0628C15.8407 21.8096 15.6439 21.6099 15.3915 21.5286L10.6891 20.0154L30.2409 12.432C30.2937 12.4198 30.3493 12.4106 30.4 12.4042Z" fill="white"/>
<path fill-rule="evenodd" clip-rule="evenodd" d="M17.9736 29.5892L21.5007 26.5435C21.8395 26.2511 21.8773 25.7383 21.5849 25.3996C21.2918 25.0609 20.779 25.0231 20.4403 25.3155L16.9139 28.3612C16.5744 28.6536 16.5373 29.1663 16.8297 29.5051C17.1221 29.8445 17.6349 29.8816 17.9736 29.5892Z" fill="white"/>
</svg>
