<svg width="60" height="60" viewBox="0 0 60 60" fill="none" xmlns="http://www.w3.org/2000/svg">
<path d="M55.4962 45.8705C54.7076 45.8705 54.0676 45.2305 54.0676 44.441C54.0676 31.1276 43.2448 20.2971 29.941 20.2971C16.6381 20.2971 5.8143 31.1276 5.8143 44.441C5.8143 45.2305 5.17525 45.8705 4.38572 45.8705C3.59715 45.8705 2.95715 45.2305 2.95715 44.441C2.95715 29.5514 15.0619 17.4381 29.941 17.4381C44.82 17.4381 56.9248 29.5514 56.9248 44.441C56.9248 45.2305 56.2857 45.8705 55.4962 45.8705Z" fill="white"/>
<path d="M25.3077 15.4781H10.0696C9.28099 15.4781 8.64099 14.8381 8.64099 14.0486C8.64099 13.259 9.28099 12.619 10.0696 12.619H25.3077C26.0962 12.619 26.7362 13.259 26.7362 14.0486C26.7362 14.8381 26.0962 15.4781 25.3077 15.4781Z" fill="white"/>
<path d="M48.1647 15.4781H33.879C33.0904 15.4781 32.4504 14.8381 32.4504 14.0486C32.4504 13.259 33.0904 12.619 33.879 12.619H48.1647C48.9533 12.619 49.5933 13.259 49.5933 14.0486C49.5933 14.8381 48.9533 15.4781 48.1647 15.4781Z" fill="white"/>
<path d="M29.2934 18.8505C26.3876 18.8505 24.0248 16.4857 24.0248 13.5781C24.0248 10.6714 26.3876 8.30571 29.2934 8.30571C32.1981 8.30571 34.561 10.6714 34.561 13.5781C34.561 16.4857 32.1981 18.8505 29.2934 18.8505ZM29.2934 11.1648C27.9629 11.1648 26.8819 12.2476 26.8819 13.5781C26.8819 14.9086 27.9629 15.9914 29.2934 15.9914C30.6219 15.9914 31.7038 14.9086 31.7038 13.5781C31.7038 12.2476 30.6219 11.1648 29.2934 11.1648Z" fill="white"/>
<path d="M60 50.2647C60 51.0543 59.36 51.6943 58.5714 51.6943H52.8572C52.0676 51.6943 51.4286 51.0543 51.4286 50.2647V44.5466C51.4286 43.7571 52.0676 43.1171 52.8572 43.1171H58.5714C59.36 43.1171 60 43.7571 60 44.5466V50.2647ZM54.2857 48.8352H57.1429V45.9762H54.2857V48.8352Z" fill="white"/>
<path d="M57.1428 17.8609C57.1428 18.6505 56.5028 19.2905 55.7143 19.2905H50C49.2105 19.2905 48.5714 18.6505 48.5714 17.8609V11.1895C48.5714 10.4 49.2105 9.75999 50 9.75999H55.7143C56.5028 9.75999 57.1428 10.4 57.1428 11.1895V17.8609ZM51.4286 16.4314H54.2857V12.619H51.4286V16.4314Z" fill="white"/>
<path d="M11.4286 17.8609C11.4286 18.6505 10.7886 19.2905 10 19.2905H4.28575C3.49623 19.2905 2.85718 18.6505 2.85718 17.8609V11.1895C2.85718 10.4 3.49623 9.75999 4.28575 9.75999H10C10.7886 9.75999 11.4286 10.4 11.4286 11.1895V17.8609ZM5.71432 16.4314H8.57146V12.619H5.71432V16.4314Z" fill="white"/>
<path d="M8.57143 50.2647C8.57143 51.0543 7.93143 51.6943 7.14286 51.6943H1.42857C0.639048 51.6943 0 51.0543 0 50.2647V44.5466C0 43.7571 0.639048 43.1171 1.42857 43.1171H7.14286C7.93143 43.1171 8.57143 43.7571 8.57143 44.5466V50.2647ZM2.85714 48.8352H5.71429V45.9762H2.85714V48.8352Z" fill="white"/>
</svg>
